<svg width="25" height="24" viewBox="0 0 25 24" fill="none" xmlns="http://www.w3.org/2000/svg">
<path fill-rule="evenodd" clip-rule="evenodd" d="M12 20C18.6274 20 24 14.6667 24 12C24 9.33333 18.6274 4 12 4C5.37258 4 0 9.33333 0 12C0 14.6667 5.37258 20 12 20ZM21.6656 13.3366C22.1889 12.5822 22.2857 12.1196 22.2857 12C22.2857 11.8804 22.1889 11.4178 21.6656 10.6634C21.1773 9.95985 20.4314 9.17036 19.4655 8.42904C17.5276 6.94173 14.8768 5.77778 12 5.77778C9.12317 5.77778 6.47241 6.94173 4.53453 8.42904C3.56862 9.17036 2.8227 9.95985 2.33444 10.6634C1.81101 11.4178 1.71429 11.8804 1.71429 12C1.71429 12.1196 1.81101 12.5822 2.33444 13.3366C2.8227 14.0402 3.56862 14.8296 4.53453 15.5709C6.47241 17.0583 9.12317 18.2222 12 18.2222C14.8768 18.2222 17.5276 17.0583 19.4655 15.5709C20.4314 14.8296 21.1773 14.0402 21.6656 13.3366ZM7.3415 8.75258L10.4814 11.5L7.3415 14.2474L8.6585 15.7526L12 12.8288L15.3415 15.7526L16.6585 14.2474L13.5186 11.5L16.6585 8.75258L15.3415 7.24742L12 10.1712L8.6585 7.24742L7.3415 8.75258Z" fill="white"/>
</svg>
